<?xml version="1.0" encoding="utf-8"?>
<!-- Designed by Vexels.com - 2016 All Rights Reserved - https://vexels.com/terms-and-conditions/  -->

<svg version="1.0" id="Capa_1" xmlns="http://www.w3.org/2000/svg" xmlns:xlink="http://www.w3.org/1999/xlink" x="0px" y="0px"
	 width="1200px" height="1200px" viewBox="0 0 1200 1200" enable-background="new 0 0 1200 1200" xml:space="preserve">
<g>
	<g>
		<linearGradient id="SVGID_2_" gradientUnits="userSpaceOnUse" x1="316.6436" y1="364.5133" x2="617.2179" y2="364.5133">
			<stop  offset="0" style="stop-color:#0077B0"/>
			<stop  offset="1" style="stop-color:#00457C"/>
		</linearGradient>
		<path fill="url(#SVGID_2_)" d="M316.644,175.303l217.832,410.105l82.742-77.883l-18.249-25.561L418.871,143.656
			C418.871,143.656,321.502,141.232,316.644,175.303z"/>
		<g>
			<linearGradient id="SVGID_3_" gradientUnits="userSpaceOnUse" x1="594.7674" y1="544.6034" x2="594.7674" y2="642.8721">
				<stop  offset="0" style="stop-color:#E6C279"/>
				<stop  offset="0.0483" style="stop-color:#E6C175"/>
				<stop  offset="0.1111" style="stop-color:#E6BD69"/>
				<stop  offset="0.1816" style="stop-color:#E6B753"/>
				<stop  offset="0.2146" style="stop-color:#E6B345"/>
				<stop  offset="1" style="stop-color:#C29A48"/>
			</linearGradient>
			<path fill="url(#SVGID_3_)" d="M491.153,635.547v-47.452c0,0-4.859-17.041,27.996-17.041c32.855,0,164.275,0,164.275,0
				s15.21-1.227,15.21,15.21c0,16.428,0,59.021,0,59.021h-20.079v-55.983H513.063v55.983L491.153,635.547z"/>
			<linearGradient id="SVGID_5_" gradientUnits="userSpaceOnUse" x1="542.4711" y1="544.6171" x2="542.4711" y2="642.8418">
				<stop  offset="0" style="stop-color:#E6C279"/>
				<stop  offset="0.0483" style="stop-color:#E6C175"/>
				<stop  offset="0.1111" style="stop-color:#E6BD69"/>
				<stop  offset="0.1816" style="stop-color:#E6B753"/>
				<stop  offset="0.2146" style="stop-color:#E6B345"/>
				<stop  offset="1" style="stop-color:#C29A48"/>
			</linearGradient>
			<path opacity="0.5" fill="url(#SVGID_5_)" d="M535.82,589.848c0,0-9.485-15.444-16.671-18.794
				c18.852-0.311,46.644-0.311,46.644-0.311l-10.42,19.534L535.82,589.848z"/>
		</g>
		<path fill="#9D7A48" d="M860.573,876.245c0-143.836-117.691-260.436-262.861-260.436c-145.189,0-262.86,116.6-262.86,260.436
			c0,143.826,117.671,260.416,262.86,260.416C742.883,1136.66,860.573,1020.07,860.573,876.245z"/>
		<linearGradient id="SVGID_6_" gradientUnits="userSpaceOnUse" x1="597.7134" y1="623.254" x2="597.7134" y2="1122.818">
			<stop  offset="0" style="stop-color:#E6C279"/>
			<stop  offset="0.0483" style="stop-color:#E6C175"/>
			<stop  offset="0.1111" style="stop-color:#E6BD69"/>
			<stop  offset="0.1816" style="stop-color:#E6B753"/>
			<stop  offset="0.2146" style="stop-color:#E6B345"/>
			<stop  offset="1" style="stop-color:#C29A48"/>
		</linearGradient>
		<path fill="url(#SVGID_6_)" d="M856.328,876.245c0-141.518-115.782-256.229-258.615-256.229
			c-142.843,0-258.614,114.71-258.614,256.229c0,141.498,115.771,256.219,258.614,256.219
			C740.545,1132.463,856.328,1017.743,856.328,876.245z"/>
		<g>
			<path fill="#9D7A48" d="M772.953,875.26c0-98.828-78.466-178.93-175.24-178.93c-96.793,0-175.23,80.102-175.23,178.93
				c0,98.819,78.437,178.94,175.23,178.94C694.486,1054.201,772.953,974.079,772.953,875.26z"/>
			<linearGradient id="SVGID_7_" gradientUnits="userSpaceOnUse" x1="597.7178" y1="778.8484" x2="597.7178" y2="1152.4169">
				<stop  offset="0" style="stop-color:#E6B345"/>
				<stop  offset="0.981" style="stop-color:#A0742A"/>
			</linearGradient>
			<path fill="url(#SVGID_7_)" d="M772.953,876.245c0-95.887-78.466-173.614-175.24-173.614c-96.793,0-175.23,77.727-175.23,173.614
				c0,95.867,78.437,173.613,175.23,173.613C694.486,1049.858,772.953,972.112,772.953,876.245z"/>
		</g>
		<g>
			<linearGradient id="SVGID_8_" gradientUnits="userSpaceOnUse" x1="495.7863" y1="1046.3042" x2="492.8473" y2="1086.8916">
				<stop  offset="0" style="stop-color:#E6B345"/>
				<stop  offset="0.3561" style="stop-color:#E4B144"/>
				<stop  offset="0.5318" style="stop-color:#DAA941"/>
				<stop  offset="0.7601" style="stop-color:#C29237"/>
				<stop  offset="1" style="stop-color:#A0742A"/>
			</linearGradient>
			<path fill="url(#SVGID_8_)" d="M531.867,1080.074c0,0-18.56-23.692-37.023-17.09c-22.65,8.073-39.612,11.344-39.612,11.344
				s28.589,18.677,46.331,20.488C517.308,1096.414,528.634,1087.251,531.867,1080.074z"/>
			<linearGradient id="SVGID_9_" gradientUnits="userSpaceOnUse" x1="509.268" y1="1014.4501" x2="477.2423" y2="1060.3558">
				<stop  offset="0" style="stop-color:#E6B345"/>
				<stop  offset="0.3561" style="stop-color:#E4B144"/>
				<stop  offset="0.5318" style="stop-color:#DAA941"/>
				<stop  offset="0.7601" style="stop-color:#C29237"/>
				<stop  offset="1" style="stop-color:#A0742A"/>
			</linearGradient>
			<path fill="url(#SVGID_9_)" d="M513.219,1075.156c0,0,0.691-30.07-17.771-36.711c-22.611-8.141-37.803-16.369-37.803-16.369
				s10.245,32.573,22.807,45.231C491.591,1078.546,506.169,1078.662,513.219,1075.156z"/>
		</g>
		<g>
			<linearGradient id="SVGID_10_" gradientUnits="userSpaceOnUse" x1="553.5938" y1="1072.5752" x2="550.6552" y2="1113.157">
				<stop  offset="0" style="stop-color:#E6B345"/>
				<stop  offset="0.3561" style="stop-color:#E4B144"/>
				<stop  offset="0.5318" style="stop-color:#DAA941"/>
				<stop  offset="0.7601" style="stop-color:#C29237"/>
				<stop  offset="1" style="stop-color:#A0742A"/>
			</linearGradient>
			<path fill="url(#SVGID_10_)" d="M589.67,1106.337c0,0-18.551-23.673-37.023-17.09c-22.65,8.073-39.604,11.354-39.604,11.354
				s28.58,18.667,46.322,20.478C575.112,1122.696,586.437,1113.524,589.67,1106.337z"/>
			<linearGradient id="SVGID_11_" gradientUnits="userSpaceOnUse" x1="567.0825" y1="1040.7185" x2="535.0503" y2="1086.6334">
				<stop  offset="0" style="stop-color:#E6B345"/>
				<stop  offset="0.3561" style="stop-color:#E4B144"/>
				<stop  offset="0.5318" style="stop-color:#DAA941"/>
				<stop  offset="0.7601" style="stop-color:#C29237"/>
				<stop  offset="1" style="stop-color:#A0742A"/>
			</linearGradient>
			<path fill="url(#SVGID_11_)" d="M571.022,1101.429c0,0,0.691-30.07-17.762-36.712c-22.62-8.141-37.802-16.359-37.802-16.359
				s10.235,32.563,22.796,45.222C549.394,1104.827,563.971,1104.925,571.022,1101.429z"/>
		</g>
		<g>
			
				<linearGradient id="SVGID_12_" gradientUnits="userSpaceOnUse" x1="3011.7129" y1="4364.1348" x2="3008.7749" y2="4404.7114" gradientTransform="matrix(0.8034 0.5955 -0.5955 0.8034 632.8284 -4284.9434)">
				<stop  offset="0" style="stop-color:#E6B345"/>
				<stop  offset="0.3561" style="stop-color:#E4B144"/>
				<stop  offset="0.5318" style="stop-color:#DAA941"/>
				<stop  offset="0.7601" style="stop-color:#C29237"/>
				<stop  offset="1" style="stop-color:#A0742A"/>
			</linearGradient>
			<path fill="url(#SVGID_12_)" d="M462.476,1063.276c0,0-0.808-30.06-19.563-35.766c-23-7.002-38.571-14.471-38.571-14.471
				s11.841,32.027,25.016,44.044C441.053,1067.756,455.61,1067.132,462.476,1063.276z"/>
			
				<linearGradient id="SVGID_13_" gradientUnits="userSpaceOnUse" x1="3025.2039" y1="4332.2656" x2="2993.1689" y2="4378.1846" gradientTransform="matrix(0.8034 0.5955 -0.5955 0.8034 632.8284 -4284.9434)">
				<stop  offset="0" style="stop-color:#E6B345"/>
				<stop  offset="0.3561" style="stop-color:#E4B144"/>
				<stop  offset="0.5318" style="stop-color:#DAA941"/>
				<stop  offset="0.7601" style="stop-color:#C29237"/>
				<stop  offset="1" style="stop-color:#A0742A"/>
			</linearGradient>
			<path fill="url(#SVGID_13_)" d="M450.42,1048.232c0,0,18.463-23.75,7.596-40.07c-13.332-20.012-20.625-35.66-20.625-35.66
				s-11.179,32.261-8.627,49.915C431.033,1038.085,442.679,1046.84,450.42,1048.232z"/>
		</g>
		<g>
			
				<linearGradient id="SVGID_14_" gradientUnits="userSpaceOnUse" x1="3994.075" y1="4962.5981" x2="3991.136" y2="5003.1855" gradientTransform="matrix(0.6831 0.7306 -0.7256 0.6833 1291.728 -5343.5952)">
				<stop  offset="0" style="stop-color:#E6B345"/>
				<stop  offset="0.3561" style="stop-color:#E4B144"/>
				<stop  offset="0.5318" style="stop-color:#DAA941"/>
				<stop  offset="0.7601" style="stop-color:#C29237"/>
				<stop  offset="1" style="stop-color:#A0742A"/>
			</linearGradient>
			<path fill="url(#SVGID_14_)" d="M419.367,1014.841c0,0,4.508-29.72-12.893-38.717c-21.326-11.033-35.299-21.17-35.299-21.17
				s5.979,33.625,16.788,47.832C397.554,1015.387,411.937,1017.392,419.367,1014.841z"/>
			
				<linearGradient id="SVGID_15_" gradientUnits="userSpaceOnUse" x1="4007.5649" y1="4930.7393" x2="3975.531" y2="4976.6567" gradientTransform="matrix(0.6831 0.7306 -0.7256 0.6833 1291.728 -5343.5952)">
				<stop  offset="0" style="stop-color:#E6B345"/>
				<stop  offset="0.3561" style="stop-color:#E4B144"/>
				<stop  offset="0.5318" style="stop-color:#DAA941"/>
				<stop  offset="0.7601" style="stop-color:#C29237"/>
				<stop  offset="1" style="stop-color:#A0742A"/>
			</linearGradient>
			<path fill="url(#SVGID_15_)" d="M410.194,997.868c0,0,22.289-20.05,14.5-38.055c-9.544-22.095-13.945-38.805-13.945-38.805
				s-16.641,29.73-17.255,47.56C392.958,984.382,402.832,995.103,410.194,997.868z"/>
		</g>
		<g>
			
				<linearGradient id="SVGID_16_" gradientUnits="userSpaceOnUse" x1="5753.5894" y1="5479.8389" x2="5750.6514" y2="5520.415" gradientTransform="matrix(0.4519 0.8923 -0.8875 0.4535 2662.2371 -6713.814)">
				<stop  offset="0" style="stop-color:#E6B345"/>
				<stop  offset="0.3561" style="stop-color:#E4B144"/>
				<stop  offset="0.5318" style="stop-color:#DAA941"/>
				<stop  offset="0.7601" style="stop-color:#C29237"/>
				<stop  offset="1" style="stop-color:#A0742A"/>
			</linearGradient>
			<path fill="url(#SVGID_16_)" d="M385.266,952.724c0,0,12.63-27.295-1.559-40.782c-17.382-16.554-27.977-30.196-27.977-30.196
				s-3.652,33.976,2.766,50.627C364.183,947.154,377.436,953.104,385.266,952.724z"/>
			
				<linearGradient id="SVGID_17_" gradientUnits="userSpaceOnUse" x1="5767.0918" y1="5447.9668" x2="5735.0547" y2="5493.8892" gradientTransform="matrix(0.4519 0.8923 -0.8875 0.4535 2662.2371 -6713.814)">
				<stop  offset="0" style="stop-color:#E6B345"/>
				<stop  offset="0.3561" style="stop-color:#E4B144"/>
				<stop  offset="0.5318" style="stop-color:#DAA941"/>
				<stop  offset="0.7601" style="stop-color:#C29237"/>
				<stop  offset="1" style="stop-color:#A0742A"/>
			</linearGradient>
			<path fill="url(#SVGID_17_)" d="M381.204,933.862c0,0,27.013-13.01,24.559-32.495c-2.999-23.877-2.551-41.152-2.551-41.152
				s-24.286,23.888-29.856,40.85C368.429,916.1,374.924,929.149,381.204,933.862z"/>
		</g>
		<g>
			
				<linearGradient id="SVGID_18_" gradientUnits="userSpaceOnUse" x1="8038.0107" y1="5397.7061" x2="8035.0723" y2="5438.2881" gradientTransform="matrix(0.1182 0.9932 -0.9892 0.1213 4790.3916 -7797.4097)">
				<stop  offset="0" style="stop-color:#E6B345"/>
				<stop  offset="0.3561" style="stop-color:#E4B144"/>
				<stop  offset="0.5318" style="stop-color:#DAA941"/>
				<stop  offset="0.7601" style="stop-color:#C29237"/>
				<stop  offset="1" style="stop-color:#A0742A"/>
			</linearGradient>
			<path fill="url(#SVGID_18_)" d="M371.934,880.616c0,0,21.238-21.296,12.533-38.853c-10.643-21.52-15.911-37.958-15.911-37.958
				s-15.084,30.654-14.782,48.494C354.046,868.143,364.455,878.28,371.934,880.616z"/>
			
				<linearGradient id="SVGID_19_" gradientUnits="userSpaceOnUse" x1="8051.499" y1="5365.8452" x2="8019.4707" y2="5411.7554" gradientTransform="matrix(0.1182 0.9932 -0.9892 0.1213 4790.3916 -7797.4097)">
				<stop  offset="0" style="stop-color:#E6B345"/>
				<stop  offset="0.3561" style="stop-color:#E4B144"/>
				<stop  offset="0.5318" style="stop-color:#DAA941"/>
				<stop  offset="0.7601" style="stop-color:#C29237"/>
				<stop  offset="1" style="stop-color:#A0742A"/>
			</linearGradient>
			<path fill="url(#SVGID_19_)" d="M374.592,861.502c0,0,29.828-2.961,34.219-22.096c5.376-23.458,11.733-39.535,11.733-39.535
				s-31.024,14.11-42.056,28.122C368.692,840.438,370.309,854.919,374.592,861.502z"/>
		</g>
		<g>
			
				<linearGradient id="SVGID_20_" gradientUnits="userSpaceOnUse" x1="10246.3818" y1="4476.4697" x2="10243.4434" y2="4517.0459" gradientTransform="matrix(-0.2439 0.97 -0.9675 -0.2395 7252.1245 -8083.2798)">
				<stop  offset="0" style="stop-color:#E6B345"/>
				<stop  offset="0.3561" style="stop-color:#E4B144"/>
				<stop  offset="0.5318" style="stop-color:#DAA941"/>
				<stop  offset="0.7601" style="stop-color:#C29237"/>
				<stop  offset="1" style="stop-color:#A0742A"/>
			</linearGradient>
			<path fill="url(#SVGID_20_)" d="M380.591,810.505c0,0,27.421-12.328,25.562-31.823c-2.278-23.896-1.334-41.132-1.334-41.132
				s-25.016,23.253-31.102,40.031C368.321,792.471,374.427,805.656,380.591,810.505z"/>
			
				<linearGradient id="SVGID_21_" gradientUnits="userSpaceOnUse" x1="10259.8633" y1="4444.6035" x2="10227.8281" y2="4490.5229" gradientTransform="matrix(-0.2439 0.97 -0.9675 -0.2395 7252.1245 -8083.2798)">
				<stop  offset="0" style="stop-color:#E6B345"/>
				<stop  offset="0.3561" style="stop-color:#E4B144"/>
				<stop  offset="0.5318" style="stop-color:#DAA941"/>
				<stop  offset="0.7601" style="stop-color:#C29237"/>
				<stop  offset="1" style="stop-color:#A0742A"/>
			</linearGradient>
			<path fill="url(#SVGID_21_)" d="M389.89,793.6c0,0,28.921,7.867,39.847-8.453c13.38-19.992,25.065-32.748,25.065-32.748
				s-34.023,2.133-49.341,11.277C391.877,771.807,388.235,785.917,389.89,793.6z"/>
		</g>
		<g>
			
				<linearGradient id="SVGID_22_" gradientUnits="userSpaceOnUse" x1="11613.6113" y1="3269.8782" x2="11610.6729" y2="3310.4573" gradientTransform="matrix(-0.5017 0.8661 -0.8643 -0.4959 9109.3057 -7701.8501)">
				<stop  offset="0" style="stop-color:#E6B345"/>
				<stop  offset="0.3561" style="stop-color:#E4B144"/>
				<stop  offset="0.5318" style="stop-color:#DAA941"/>
				<stop  offset="0.7601" style="stop-color:#C29237"/>
				<stop  offset="1" style="stop-color:#A0742A"/>
			</linearGradient>
			<path fill="url(#SVGID_22_)" d="M409.327,749.673c0,0,29.759-4.324,33.332-23.584c4.401-23.624,10.059-39.945,10.059-39.945
				s-30.47,15.513-40.937,29.973C402.501,728.962,404.731,743.315,409.327,749.673z"/>
			
				<linearGradient id="SVGID_23_" gradientUnits="userSpaceOnUse" x1="11627.1104" y1="3238.0059" x2="11595.0723" y2="3283.9294" gradientTransform="matrix(-0.5017 0.8661 -0.8643 -0.4959 9109.3057 -7701.8501)">
				<stop  offset="0" style="stop-color:#E6B345"/>
				<stop  offset="0.3561" style="stop-color:#E4B144"/>
				<stop  offset="0.5318" style="stop-color:#DAA941"/>
				<stop  offset="0.7601" style="stop-color:#C29237"/>
				<stop  offset="1" style="stop-color:#A0742A"/>
			</linearGradient>
			<path fill="url(#SVGID_23_)" d="M422.921,735.963c0,0,25.64,15.513,40.646,2.824c18.365-15.56,33.108-24.626,33.108-24.626
				s-33.284-7.294-50.538-2.697C430.838,715.562,423.447,728.124,422.921,735.963z"/>
		</g>
		<g>
			
				<linearGradient id="SVGID_24_" gradientUnits="userSpaceOnUse" x1="12545.4951" y1="1833.7191" x2="12542.5576" y2="1874.292" gradientTransform="matrix(-0.7071 0.7084 -0.7081 -0.7011 10677.8545 -6901.207)">
				<stop  offset="0" style="stop-color:#E6B345"/>
				<stop  offset="0.3561" style="stop-color:#E4B144"/>
				<stop  offset="0.5318" style="stop-color:#DAA941"/>
				<stop  offset="0.7601" style="stop-color:#C29237"/>
				<stop  offset="1" style="stop-color:#A0742A"/>
			</linearGradient>
			<path fill="url(#SVGID_24_)" d="M459.067,702.29c0,0,29.875,3.456,38.279-14.247c10.312-21.686,19.962-36.01,19.962-36.01
				s-33.419,7.157-47.247,18.453C457.792,680.525,456.263,694.977,459.067,702.29z"/>
			
				<linearGradient id="SVGID_25_" gradientUnits="userSpaceOnUse" x1="12558.9932" y1="1801.8434" x2="12526.9561" y2="1847.7653" gradientTransform="matrix(-0.7071 0.7084 -0.7081 -0.7011 10677.8545 -6901.207)">
				<stop  offset="0" style="stop-color:#E6B345"/>
				<stop  offset="0.3561" style="stop-color:#E4B144"/>
				<stop  offset="0.5318" style="stop-color:#DAA941"/>
				<stop  offset="0.7601" style="stop-color:#C29237"/>
				<stop  offset="1" style="stop-color:#A0742A"/>
			</linearGradient>
			<path fill="url(#SVGID_25_)" d="M475.718,692.532c0,0,20.82,21.569,38.581,13.156c21.745-10.322,38.308-15.308,38.308-15.308
				s-30.304-15.59-48.143-15.57C488.621,674.839,478.251,685.083,475.718,692.532z"/>
		</g>
		<g>
			
				<linearGradient id="SVGID_26_" gradientUnits="userSpaceOnUse" x1="13115.2529" y1="1046.3044" x2="13112.3135" y2="1086.8916" gradientTransform="matrix(-1 0 0 1 13809.5859 0)">
				<stop  offset="0" style="stop-color:#E6B345"/>
				<stop  offset="0.3561" style="stop-color:#E4B144"/>
				<stop  offset="0.5318" style="stop-color:#DAA941"/>
				<stop  offset="0.7601" style="stop-color:#C29237"/>
				<stop  offset="1" style="stop-color:#A0742A"/>
			</linearGradient>
			<path fill="url(#SVGID_26_)" d="M658.262,1080.074c0,0,18.541-23.692,37.023-17.09c22.64,8.073,39.594,11.344,39.594,11.344
				s-28.571,18.677-46.322,20.488C672.811,1096.414,661.485,1087.251,658.262,1080.074z"/>
			
				<linearGradient id="SVGID_27_" gradientUnits="userSpaceOnUse" x1="13128.7383" y1="1014.445" x2="13096.709" y2="1060.3569" gradientTransform="matrix(-1 0 0 1 13809.5859 0)">
				<stop  offset="0" style="stop-color:#E6B345"/>
				<stop  offset="0.3561" style="stop-color:#E4B144"/>
				<stop  offset="0.5318" style="stop-color:#DAA941"/>
				<stop  offset="0.7601" style="stop-color:#C29237"/>
				<stop  offset="1" style="stop-color:#A0742A"/>
			</linearGradient>
			<path fill="url(#SVGID_27_)" d="M676.9,1075.156c0,0-0.681-30.07,17.762-36.711c22.63-8.141,37.812-16.369,37.812-16.369
				s-10.235,32.573-22.796,45.231C698.518,1078.546,683.951,1078.662,676.9,1075.156z"/>
		</g>
		<g>
			
				<linearGradient id="SVGID_28_" gradientUnits="userSpaceOnUse" x1="13178.3086" y1="1073.6361" x2="13175.3711" y2="1114.2096" gradientTransform="matrix(-1 0 0 1 13809.5859 0)">
				<stop  offset="0" style="stop-color:#E6B345"/>
				<stop  offset="0.3561" style="stop-color:#E4B144"/>
				<stop  offset="0.5318" style="stop-color:#DAA941"/>
				<stop  offset="0.7601" style="stop-color:#C29237"/>
				<stop  offset="1" style="stop-color:#A0742A"/>
			</linearGradient>
			<path fill="url(#SVGID_28_)" d="M595.201,1107.398c0,0,18.54-23.682,37.023-17.09c22.649,8.063,39.603,11.345,39.603,11.345
				s-28.58,18.667-46.322,20.478C609.758,1123.748,598.434,1114.574,595.201,1107.398z"/>
			
				<linearGradient id="SVGID_29_" gradientUnits="userSpaceOnUse" x1="13191.8076" y1="1041.7629" x2="13159.7666" y2="1087.6903" gradientTransform="matrix(-1 0 0 1 13809.5859 0)">
				<stop  offset="0" style="stop-color:#E6B345"/>
				<stop  offset="0.3561" style="stop-color:#E4B144"/>
				<stop  offset="0.5318" style="stop-color:#DAA941"/>
				<stop  offset="0.7601" style="stop-color:#C29237"/>
				<stop  offset="1" style="stop-color:#A0742A"/>
			</linearGradient>
			<path fill="url(#SVGID_29_)" d="M613.839,1102.48c0,0-0.681-30.07,17.762-36.711c22.63-8.141,37.812-16.359,37.812-16.359
				s-10.225,32.563-22.797,45.231C635.476,1105.879,620.898,1105.986,613.839,1102.48z"/>
		</g>
		<g>
			
				<linearGradient id="SVGID_30_" gradientUnits="userSpaceOnUse" x1="13149.4609" y1="-3150.2183" x2="13146.5225" y2="-3109.6411" gradientTransform="matrix(-0.8034 0.5955 0.5955 0.8034 13176.7568 -4284.9434)">
				<stop  offset="0" style="stop-color:#E6B345"/>
				<stop  offset="0.3561" style="stop-color:#E4B144"/>
				<stop  offset="0.5318" style="stop-color:#DAA941"/>
				<stop  offset="0.7601" style="stop-color:#C29237"/>
				<stop  offset="1" style="stop-color:#A0742A"/>
			</linearGradient>
			<path fill="url(#SVGID_30_)" d="M727.643,1063.276c0,0,0.809-30.06,19.563-35.766c23.001-7.002,38.581-14.471,38.581-14.471
				s-11.841,32.027-25.026,44.044C749.076,1067.756,734.509,1067.132,727.643,1063.276z"/>
			
				<linearGradient id="SVGID_31_" gradientUnits="userSpaceOnUse" x1="13162.9561" y1="-3182.0859" x2="13130.9209" y2="-3136.167" gradientTransform="matrix(-0.8034 0.5955 0.5955 0.8034 13176.7568 -4284.9434)">
				<stop  offset="0" style="stop-color:#E6B345"/>
				<stop  offset="0.3561" style="stop-color:#E4B144"/>
				<stop  offset="0.5318" style="stop-color:#DAA941"/>
				<stop  offset="0.7601" style="stop-color:#C29237"/>
				<stop  offset="1" style="stop-color:#A0742A"/>
			</linearGradient>
			<path fill="url(#SVGID_31_)" d="M739.689,1048.232c0,0-18.453-23.75-7.585-40.07c13.331-20.012,20.624-35.66,20.624-35.66
				s11.179,32.261,8.628,49.915C759.086,1038.085,747.44,1046.84,739.689,1048.232z"/>
		</g>
		<g>
			
				<linearGradient id="SVGID_32_" gradientUnits="userSpaceOnUse" x1="12643.8926" y1="-4285.9844" x2="12640.9531" y2="-4245.3999" gradientTransform="matrix(-0.6831 0.7306 0.7256 0.6833 12517.8574 -5343.5952)">
				<stop  offset="0" style="stop-color:#E6B345"/>
				<stop  offset="0.3561" style="stop-color:#E4B144"/>
				<stop  offset="0.5318" style="stop-color:#DAA941"/>
				<stop  offset="0.7601" style="stop-color:#C29237"/>
				<stop  offset="1" style="stop-color:#A0742A"/>
			</linearGradient>
			<path fill="url(#SVGID_32_)" d="M770.762,1014.841c0,0-4.508-29.72,12.883-38.717c21.326-11.033,35.299-21.17,35.299-21.17
				s-5.979,33.625-16.787,47.832C792.564,1015.387,778.173,1017.392,770.762,1014.841z"/>
			
				<linearGradient id="SVGID_33_" gradientUnits="userSpaceOnUse" x1="12657.377" y1="-4317.8374" x2="12625.3467" y2="-4271.9253" gradientTransform="matrix(-0.6831 0.7306 0.7256 0.6833 12517.8574 -5343.5952)">
				<stop  offset="0" style="stop-color:#E6B345"/>
				<stop  offset="0.3561" style="stop-color:#E4B144"/>
				<stop  offset="0.5318" style="stop-color:#DAA941"/>
				<stop  offset="0.7601" style="stop-color:#C29237"/>
				<stop  offset="1" style="stop-color:#A0742A"/>
			</linearGradient>
			<path fill="url(#SVGID_33_)" d="M779.935,997.868c0,0-22.289-20.05-14.499-38.055c9.544-22.095,13.945-38.805,13.945-38.805
				s16.641,29.73,17.255,47.56C797.161,984.382,787.286,995.103,779.935,997.868z"/>
		</g>
		<g>
			
				<linearGradient id="SVGID_34_" gradientUnits="userSpaceOnUse" x1="11494.585" y1="-5816.0649" x2="11491.6465" y2="-5775.4775" gradientTransform="matrix(-0.4519 0.8923 0.8875 0.4535 11147.3486 -6713.814)">
				<stop  offset="0" style="stop-color:#E6B345"/>
				<stop  offset="0.3561" style="stop-color:#E4B144"/>
				<stop  offset="0.5318" style="stop-color:#DAA941"/>
				<stop  offset="0.7601" style="stop-color:#C29237"/>
				<stop  offset="1" style="stop-color:#A0742A"/>
			</linearGradient>
			<path fill="url(#SVGID_34_)" d="M804.854,952.724c0,0-12.63-27.295,1.557-40.782c17.392-16.554,27.977-30.196,27.977-30.196
				s3.652,33.976-2.756,50.627C825.946,947.154,812.683,953.104,804.854,952.724z"/>
			
				<linearGradient id="SVGID_35_" gradientUnits="userSpaceOnUse" x1="11508.0801" y1="-5847.9204" x2="11476.0488" y2="-5802.0068" gradientTransform="matrix(-0.4519 0.8923 0.8875 0.4535 11147.3486 -6713.814)">
				<stop  offset="0" style="stop-color:#E6B345"/>
				<stop  offset="0.3561" style="stop-color:#E4B144"/>
				<stop  offset="0.5318" style="stop-color:#DAA941"/>
				<stop  offset="0.7601" style="stop-color:#C29237"/>
				<stop  offset="1" style="stop-color:#A0742A"/>
			</linearGradient>
			<path fill="url(#SVGID_35_)" d="M808.914,933.862c0,0-27.003-13.01-24.549-32.495c2.999-23.877,2.551-41.152,2.551-41.152
				s24.276,23.888,29.846,40.85C821.7,916.1,815.195,929.149,808.914,933.862z"/>
		</g>
		<g>
			
				<linearGradient id="SVGID_36_" gradientUnits="userSpaceOnUse" x1="9573.6494" y1="-7176.0415" x2="9570.7109" y2="-7135.4614" gradientTransform="matrix(-0.1182 0.9932 0.9892 0.1213 9019.1943 -7797.4097)">
				<stop  offset="0" style="stop-color:#E6B345"/>
				<stop  offset="0.3561" style="stop-color:#E4B144"/>
				<stop  offset="0.5318" style="stop-color:#DAA941"/>
				<stop  offset="0.7601" style="stop-color:#C29237"/>
				<stop  offset="1" style="stop-color:#A0742A"/>
			</linearGradient>
			<path fill="url(#SVGID_36_)" d="M818.175,880.616c0,0-21.218-21.296-12.523-38.853c10.653-21.52,15.911-37.958,15.911-37.958
				s15.094,30.654,14.783,48.494C836.073,868.143,825.673,878.28,818.175,880.616z"/>
			
				<linearGradient id="SVGID_37_" gradientUnits="userSpaceOnUse" x1="9587.1455" y1="-7207.9126" x2="9555.1064" y2="-7161.9888" gradientTransform="matrix(-0.1182 0.9932 0.9892 0.1213 9019.1943 -7797.4097)">
				<stop  offset="0" style="stop-color:#E6B345"/>
				<stop  offset="0.3561" style="stop-color:#E4B144"/>
				<stop  offset="0.5318" style="stop-color:#DAA941"/>
				<stop  offset="0.7601" style="stop-color:#C29237"/>
				<stop  offset="1" style="stop-color:#A0742A"/>
			</linearGradient>
			<path fill="url(#SVGID_37_)" d="M815.527,861.502c0,0-29.836-2.961-34.219-22.096c-5.375-23.458-11.723-39.535-11.723-39.535
				s31.004,14.11,42.056,28.122C821.437,840.438,819.812,854.919,815.527,861.502z"/>
		</g>
		<g>
			
				<linearGradient id="SVGID_38_" gradientUnits="userSpaceOnUse" x1="7214.5889" y1="-7802.6079" x2="7211.6504" y2="-7762.0283" gradientTransform="matrix(0.2439 0.97 0.9675 -0.2395 6557.4614 -8083.2798)">
				<stop  offset="0" style="stop-color:#E6B345"/>
				<stop  offset="0.3561" style="stop-color:#E4B144"/>
				<stop  offset="0.5318" style="stop-color:#DAA941"/>
				<stop  offset="0.7601" style="stop-color:#C29237"/>
				<stop  offset="1" style="stop-color:#A0742A"/>
			</linearGradient>
			<path fill="url(#SVGID_38_)" d="M809.538,810.505c0,0-27.431-12.328-25.562-31.823c2.27-23.896,1.324-41.132,1.324-41.132
				s25.026,23.253,31.112,40.031C821.798,792.471,815.702,805.656,809.538,810.505z"/>
			
				<linearGradient id="SVGID_39_" gradientUnits="userSpaceOnUse" x1="7228.0684" y1="-7834.4653" x2="7196.0391" y2="-7788.5547" gradientTransform="matrix(0.2439 0.97 0.9675 -0.2395 6557.4614 -8083.2798)">
				<stop  offset="0" style="stop-color:#E6B345"/>
				<stop  offset="0.3561" style="stop-color:#E4B144"/>
				<stop  offset="0.5318" style="stop-color:#DAA941"/>
				<stop  offset="0.7601" style="stop-color:#C29237"/>
				<stop  offset="1" style="stop-color:#A0742A"/>
			</linearGradient>
			<path fill="url(#SVGID_39_)" d="M800.238,793.6c0,0-28.921,7.867-39.847-8.453c-13.39-19.992-25.065-32.748-25.065-32.748
				s34.005,2.133,49.332,11.277C798.242,771.807,801.884,785.917,800.238,793.6z"/>
		</g>
		<g>
			
				<linearGradient id="SVGID_40_" gradientUnits="userSpaceOnUse" x1="5339.0786" y1="-7688.7358" x2="5336.1396" y2="-7648.1509" gradientTransform="matrix(0.5017 0.8661 0.8643 -0.4959 4700.2808 -7701.8501)">
				<stop  offset="0" style="stop-color:#E6B345"/>
				<stop  offset="0.3561" style="stop-color:#E4B144"/>
				<stop  offset="0.5318" style="stop-color:#DAA941"/>
				<stop  offset="0.7601" style="stop-color:#C29237"/>
				<stop  offset="1" style="stop-color:#A0742A"/>
			</linearGradient>
			<path fill="url(#SVGID_40_)" d="M780.802,749.673c0,0-29.759-4.324-33.342-23.584c-4.401-23.624-10.049-39.945-10.049-39.945
				s30.46,15.513,40.938,29.973C787.618,728.962,785.398,743.315,780.802,749.673z"/>
			
				<linearGradient id="SVGID_41_" gradientUnits="userSpaceOnUse" x1="5352.5737" y1="-7720.604" x2="5320.5356" y2="-7674.6807" gradientTransform="matrix(0.5017 0.8661 0.8643 -0.4959 4700.2808 -7701.8501)">
				<stop  offset="0" style="stop-color:#E6B345"/>
				<stop  offset="0.3561" style="stop-color:#E4B144"/>
				<stop  offset="0.5318" style="stop-color:#DAA941"/>
				<stop  offset="0.7601" style="stop-color:#C29237"/>
				<stop  offset="1" style="stop-color:#A0742A"/>
			</linearGradient>
			<path fill="url(#SVGID_41_)" d="M767.208,735.963c0,0-25.649,15.513-40.646,2.824c-18.385-15.56-33.118-24.626-33.118-24.626
				s33.294-7.294,50.548-2.697C759.281,715.562,766.682,728.124,767.208,735.963z"/>
		</g>
		<g>
			
				<linearGradient id="SVGID_42_" gradientUnits="userSpaceOnUse" x1="3674.6201" y1="-7129.522" x2="3671.6821" y2="-7088.9482" gradientTransform="matrix(0.7071 0.7084 0.7081 -0.7011 3131.7314 -6901.207)">
				<stop  offset="0" style="stop-color:#E6B345"/>
				<stop  offset="0.3561" style="stop-color:#E4B144"/>
				<stop  offset="0.5318" style="stop-color:#DAA941"/>
				<stop  offset="0.7601" style="stop-color:#C29237"/>
				<stop  offset="1" style="stop-color:#A0742A"/>
			</linearGradient>
			<path fill="url(#SVGID_42_)" d="M731.052,702.29c0,0-29.875,3.456-38.279-14.247c-10.302-21.686-19.962-36.01-19.962-36.01
				s33.419,7.157,47.248,18.453C732.327,680.525,733.856,694.977,731.052,702.29z"/>
			
				<linearGradient id="SVGID_43_" gradientUnits="userSpaceOnUse" x1="3688.1162" y1="-7161.396" x2="3656.0798" y2="-7115.4746" gradientTransform="matrix(0.7071 0.7084 0.7081 -0.7011 3131.7314 -6901.207)">
				<stop  offset="0" style="stop-color:#E6B345"/>
				<stop  offset="0.3561" style="stop-color:#E4B144"/>
				<stop  offset="0.5318" style="stop-color:#DAA941"/>
				<stop  offset="0.7601" style="stop-color:#C29237"/>
				<stop  offset="1" style="stop-color:#A0742A"/>
			</linearGradient>
			<path fill="url(#SVGID_43_)" d="M714.4,692.532c0,0-20.809,21.569-38.571,13.156c-21.754-10.322-38.318-15.308-38.318-15.308
				s30.294-15.59,48.153-15.57C701.497,674.839,711.878,685.083,714.4,692.532z"/>
		</g>
		<linearGradient id="SVGID_44_" gradientUnits="userSpaceOnUse" x1="312.6194" y1="119.5168" x2="822.8884" y2="119.5168">
			<stop  offset="0" style="stop-color:#00AEEF"/>
			<stop  offset="1" style="stop-color:#004875"/>
		</linearGradient>
		<path fill="url(#SVGID_44_)" d="M822.888,63.339H375.05l-60.841,96.14c0,0-4.869,13.39,2.434,15.824
			c7.303,2.435-2.434-7.303,24.335-7.303c26.768,0,449.054-1.217,449.054-1.217L822.888,63.339z"/>
		<linearGradient id="SVGID_45_" gradientUnits="userSpaceOnUse" x1="534.476" y1="326.8082" x2="887.3806" y2="326.8082">
			<stop  offset="0" style="stop-color:#2AC5F4"/>
			<stop  offset="0.0098" style="stop-color:#00B1ED"/>
			<stop  offset="1" style="stop-color:#0076B6"/>
		</linearGradient>
		<path fill="url(#SVGID_45_)" d="M822.888,63.339l64.492,109.53L659.82,590.277H534.476c0,0,3.643-3.653,13.38-19.476
			c9.738-15.814,261.653-494.072,261.653-494.072L822.888,63.339z"/>
	</g>
	<g>
		<g>
			<g>
				<path fill="#876A3E" d="M566.377,936.754h-22.61v30.196h81.144v-30.196h-22.893V773.823h-32.096l-48.416,46.517l20.664,21.755
					l15.513-14.685c6.251-6.251,8.433-10.887,8.433-10.887h0.535c0,0-0.273,6.524-0.273,13.059V936.754z"/>
			</g>
			<g>
				<path fill="#FFFFFF" d="M565.793,943.376h-22.631v30.196h81.154v-30.196h-22.893V780.444h-32.096l-48.415,46.518l20.673,21.764
					l15.503-14.685c6.252-6.261,8.433-10.896,8.433-10.896h0.545c0,0-0.272,6.533-0.272,13.068V943.376z"/>
			</g>
			<g>
				<linearGradient id="SVGID_46_" gradientUnits="userSpaceOnUse" x1="569.8391" y1="810.5353" x2="577.9814" y2="1022.2274">
					<stop  offset="0" style="stop-color:#FDE5B7"/>
					<stop  offset="0.1467" style="stop-color:#FCE2B1"/>
					<stop  offset="0.3373" style="stop-color:#F8DAA2"/>
					<stop  offset="0.5523" style="stop-color:#F3D08A"/>
					<stop  offset="0.7833" style="stop-color:#EDC26B"/>
					<stop  offset="1" style="stop-color:#E6B345"/>
				</linearGradient>
				<path fill="url(#SVGID_46_)" d="M565.793,940.893h-22.631v30.196h81.154v-30.196h-22.893V777.961h-32.096l-48.415,46.518
					l20.673,21.764l15.503-14.685c6.252-6.251,8.433-10.887,8.433-10.887h0.545c0,0-0.272,6.534-0.272,13.059V940.893z"/>
			</g>
		</g>
		<g>
			<g>
				<path fill="#876A3E" d="M618.25,815.53c0,0,5.736,6.612,13.409,6.612c3.447,0,6.096-1.402,6.096-4.411
					c0-6.339-23.74-6.251-23.74-20.819c0-8.988,8.121-13.136,17.469-13.136c6.087,0,15.795,2.035,15.795,9.348v4.685h-9.883v-2.221
					c0-2.113-3.184-3.165-5.658-3.165c-3.954,0-6.699,1.412-6.699,4.051c0,7.06,23.915,5.648,23.915,20.644
					c0,8.472-7.498,13.76-17.294,13.76c-12.348,0-18.696-8.034-18.696-8.034L618.25,815.53z"/>
				<path fill="#876A3E" d="M657.795,793.737h-5.823v-8.901h6.096v-12.27h10.926v12.27h10.243v8.901h-10.243v18.17
					c0,7.411,5.822,8.472,8.919,8.472c1.227,0,2.025-0.174,2.025-0.174V830c0,0-1.412,0.262-3.437,0.262
					c-6.261,0-18.706-1.85-18.706-16.933V793.737z"/>
			</g>
			<g>
				<path fill="#FFFFFF" d="M618.25,819.152c0,0,5.736,6.612,13.409,6.612c3.447,0,6.096-1.412,6.096-4.411
					c0-6.349-23.74-6.261-23.74-20.809c0-9.007,8.121-13.156,17.469-13.156c6.087,0,15.795,2.035,15.795,9.348v4.685h-9.883v-2.201
					c0-2.123-3.184-3.185-5.658-3.185c-3.954,0-6.699,1.412-6.699,4.06c0,7.061,23.915,5.649,23.915,20.645
					c0,8.472-7.498,13.759-17.294,13.759c-12.348,0-18.696-8.023-18.696-8.023L618.25,819.152z"/>
				<path fill="#FFFFFF" d="M657.795,797.359h-5.823v-8.9h6.096v-12.26h10.926v12.26h10.243v8.9h-10.243v18.181
					c0,7.401,5.822,8.462,8.919,8.462c1.227,0,2.025-0.176,2.025-0.176v9.787c0,0-1.412,0.262-3.437,0.262
					c-6.261,0-18.706-1.85-18.706-16.933V797.359z"/>
			</g>
			<g>
				<linearGradient id="SVGID_47_" gradientUnits="userSpaceOnUse" x1="630.9575" y1="774.6229" x2="630.9575" y2="846.7883">
					<stop  offset="0" style="stop-color:#FDE5B7"/>
					<stop  offset="0.1467" style="stop-color:#FCE2B1"/>
					<stop  offset="0.3373" style="stop-color:#F8DAA2"/>
					<stop  offset="0.5523" style="stop-color:#F3D08A"/>
					<stop  offset="0.7833" style="stop-color:#EDC26B"/>
					<stop  offset="1" style="stop-color:#E6B345"/>
				</linearGradient>
				<path fill="url(#SVGID_47_)" d="M618.25,817.555c0,0,5.736,6.632,13.409,6.632c3.447,0,6.096-1.412,6.096-4.411
					c0-6.349-23.74-6.271-23.74-20.829c0-8.988,8.121-13.136,17.469-13.136c6.087,0,15.795,2.026,15.795,9.348v4.675h-9.883v-2.211
					c0-2.113-3.184-3.165-5.658-3.165c-3.954,0-6.699,1.412-6.699,4.051c0,7.06,23.915,5.638,23.915,20.644
					c0,8.472-7.498,13.76-17.294,13.76c-12.348,0-18.696-8.034-18.696-8.034L618.25,817.555z"/>
				<linearGradient id="SVGID_48_" gradientUnits="userSpaceOnUse" x1="665.9547" y1="774.6019" x2="665.9547" y2="846.778">
					<stop  offset="0" style="stop-color:#FDE5B7"/>
					<stop  offset="0.1467" style="stop-color:#FCE2B1"/>
					<stop  offset="0.3373" style="stop-color:#F8DAA2"/>
					<stop  offset="0.5523" style="stop-color:#F3D08A"/>
					<stop  offset="0.7833" style="stop-color:#EDC26B"/>
					<stop  offset="1" style="stop-color:#E6B345"/>
				</linearGradient>
				<path fill="url(#SVGID_48_)" d="M657.795,795.772h-5.823v-8.9h6.096v-12.27h10.926v12.27h10.243v8.9h-10.243v18.17
					c0,7.421,5.822,8.472,8.919,8.472c1.227,0,2.025-0.174,2.025-0.174v9.786c0,0-1.412,0.272-3.437,0.272
					c-6.261,0-18.706-1.85-18.706-16.943V795.772z"/>
			</g>
		</g>
	</g>
</g>
</svg>
